<svg width="14" height="14" viewBox="0 0 14 14" fill="none" xmlns="http://www.w3.org/2000/svg">
<path d="M4.53536 2.35233C5.60794 1.78202 6.8451 1.60132 8.036 1.84102C9.22689 2.08071 10.2978 2.72597 11.0662 3.66682C11.7502 4.50427 12.1568 5.52976 12.2359 6.6017L12.9188 5.91873C13.0327 5.80483 13.2174 5.80483 13.3313 5.91873C13.4452 6.03263 13.4452 6.21731 13.3313 6.33121L12.1647 7.49788C12.0508 7.61178 11.8661 7.61178 11.7522 7.49788L10.5855 6.33121C10.4716 6.21731 10.4716 6.03263 10.5855 5.91873C10.6994 5.80483 10.8841 5.80483 10.998 5.91873L11.6479 6.56863C11.5645 5.64337 11.2062 4.76041 10.6144 4.03582C9.93139 3.19951 8.97947 2.62595 7.92089 2.41288C6.86232 2.19982 5.76262 2.36044 4.80921 2.86738C3.85581 3.37432 3.1077 4.19619 2.69239 5.19293C2.27708 6.18967 2.22028 7.29959 2.53166 8.33352C2.84304 9.36745 3.50333 10.2614 4.4 10.863C5.29667 11.4646 6.37423 11.7367 7.44902 11.6328C8.52382 11.5289 9.52933 11.0556 10.2942 10.2934C10.3103 10.2773 10.328 10.2634 10.347 10.2517C10.4416 10.1546 10.5321 10.0533 10.6185 9.94775C10.7205 9.82308 10.9043 9.80471 11.0289 9.90671C11.1536 10.0087 11.172 10.1925 11.07 10.3171C10.9589 10.4529 10.8415 10.5826 10.718 10.7062C10.701 10.7232 10.682 10.7379 10.6617 10.7501C9.80692 11.5821 8.69369 12.0986 7.50514 12.2134C6.296 12.3303 5.08375 12.0243 4.07499 11.3474C3.06623 10.6706 2.3234 9.6649 1.9731 8.50173C1.6228 7.33856 1.68671 6.0899 2.15393 4.96857C2.62115 3.84724 3.46277 2.92263 4.53536 2.35233Z" fill="#CED3D9"/>
<path d="M7.29175 4.0833C7.13067 4.0833 7.00008 4.21389 7.00008 4.37497V6.92582L5.38801 8.5379C5.27411 8.6518 5.27411 8.83647 5.38801 8.95038C5.50191 9.06428 5.68659 9.06428 5.80049 8.95038L7.49799 7.25288C7.55269 7.19818 7.58341 7.12399 7.58341 7.04664V4.37497C7.58341 4.21389 7.45283 4.0833 7.29175 4.0833Z" fill="#CED3D9"/>
</svg>
