<svg width="33" height="33" viewBox="0 0 33 33" fill="none" xmlns="http://www.w3.org/2000/svg">
<path fill-rule="evenodd" clip-rule="evenodd" d="M27.5 15.125C27.5 14.3656 26.8844 13.75 26.125 13.75V9.50704C26.125 8.96003 25.9077 8.43543 25.5209 8.04864L20.8264 3.35409C20.4396 2.9673 19.915 2.75 19.368 2.75H8.9375C7.79841 2.75 6.875 3.67341 6.875 4.8125V13.75C6.11561 13.75 5.5 14.3656 5.5 15.125V22C5.5 22.7594 6.11561 23.375 6.875 23.375V28.1875C6.875 29.3266 7.79841 30.25 8.9375 30.25H24.0625C25.2016 30.25 26.125 29.3266 26.125 28.1875V23.375C26.8844 23.375 27.5 22.7594 27.5 22V15.125ZM8.9375 4.125C8.5578 4.125 8.25 4.4328 8.25 4.8125V13.75H24.75V9.625H20.2125C19.6809 9.625 19.25 9.19407 19.25 8.6625V4.125H8.9375ZM24.0625 28.875C24.4422 28.875 24.75 28.5672 24.75 28.1875V23.375H8.25V28.1875C8.25 28.5672 8.5578 28.875 8.9375 28.875H24.0625ZM10.1638 18.5059L8.25 21.4281V21.5875H9.57565L10.8889 19.5452L12.1981 21.5875H13.6362L11.618 18.5502L13.4549 15.682H12.0732L10.9131 17.5793L9.72873 15.682H8.33493L10.1638 18.5059ZM20.625 5.09727L23.7777 8.25H20.625V5.09727ZM19.6498 19.666L20.81 19.5532C20.8798 19.9426 21.0208 20.2286 21.233 20.4112C21.4478 20.5939 21.7365 20.6852 22.0991 20.6852C22.4831 20.6852 22.7718 20.6046 22.9651 20.4435C23.1612 20.2797 23.2592 20.089 23.2592 19.8715C23.2592 19.7318 23.2176 19.6136 23.1343 19.517C23.0538 19.4176 22.9114 19.3317 22.7073 19.2591C22.5677 19.2108 22.2494 19.1249 21.7526 19.0013C21.1135 18.8429 20.665 18.6482 20.4072 18.4172C20.0446 18.0923 19.8633 17.6962 19.8633 17.2289C19.8633 16.9281 19.9479 16.6475 20.1171 16.387C20.289 16.1238 20.5347 15.9237 20.8543 15.7867C21.1766 15.6498 21.5646 15.5813 22.0185 15.5813C22.7597 15.5813 23.317 15.7438 23.6902 16.0687C24.0662 16.3937 24.2636 16.8274 24.2824 17.3699L23.09 17.4222C23.039 17.1188 22.9289 16.9012 22.7597 16.7696C22.5932 16.6354 22.3421 16.5682 22.0064 16.5682C21.66 16.5682 21.3887 16.6394 21.1927 16.7817C21.0665 16.873 21.0034 16.9952 21.0034 17.1483C21.0034 17.288 21.0624 17.4075 21.1806 17.5068C21.331 17.633 21.6962 17.7646 22.2763 17.9016C22.8564 18.0386 23.2847 18.1809 23.5613 18.3286C23.8406 18.4736 24.0582 18.6737 24.2139 18.9288C24.3724 19.1813 24.4516 19.4941 24.4516 19.8674C24.4516 20.2058 24.3576 20.5227 24.1696 20.8181C23.9816 21.1135 23.7158 21.3337 23.372 21.4788C23.0283 21.6211 22.5999 21.6923 22.087 21.6923C21.3404 21.6923 20.767 21.5204 20.3669 21.1766C19.9667 20.8302 19.7277 20.3267 19.6498 19.666ZM14.6107 15.7303V21.5875H18.768V20.5925H15.8031V15.7303H14.6107Z" fill="#0062E1"/>
</svg>
