<svg width="32" height="32" viewBox="0 0 32 32" fill="none" xmlns="http://www.w3.org/2000/svg">
<path d="M26.4714 21.8047C26.7318 21.5444 26.7318 21.1223 26.4714 20.8619C26.2111 20.6016 25.7889 20.6016 25.5286 20.8619L23.3333 23.0572L22.4714 22.1953C22.2111 21.9349 21.7889 21.9349 21.5286 22.1953C21.2682 22.4556 21.2682 22.8777 21.5286 23.1381L22.8619 24.4714C23.1223 24.7318 23.5444 24.7318 23.8047 24.4714L26.4714 21.8047Z" fill="#0062E1"/>
<path fill-rule="evenodd" clip-rule="evenodd" d="M18.6667 9.33333C18.6667 11.1263 17.7819 12.7126 16.4252 13.6795C17.8119 14.0838 19.0885 14.832 20.1283 15.8717C20.5691 16.3126 20.9575 16.796 21.2895 17.3123C22.1037 16.8994 23.0247 16.6667 24 16.6667C27.3137 16.6667 30 19.353 30 22.6667C30 25.9804 27.3137 28.6667 24 28.6667C21.6442 28.6667 19.6055 27.309 18.6237 25.3333H6.93333C6.15536 25.3333 5.40926 25.0243 4.85915 24.4742C4.30905 23.9241 4 23.178 4 22.4V22C4 19.7015 4.91309 17.4971 6.53841 15.8717C7.57812 14.832 8.8548 14.0838 10.2415 13.6795C8.88476 12.7126 8 11.1263 8 9.33333C8 6.38781 10.3878 4 13.3333 4C16.2789 4 18.6667 6.38781 18.6667 9.33333ZM9.33333 9.33333C9.33333 7.12419 11.1242 5.33333 13.3333 5.33333C15.5425 5.33333 17.3333 7.12419 17.3333 9.33333C17.3333 11.5425 15.5425 13.3333 13.3333 13.3333C11.1242 13.3333 9.33333 11.5425 9.33333 9.33333ZM7.48122 16.8145C8.85648 15.4393 10.7217 14.6667 12.6667 14.6667H14C15.9449 14.6667 17.8102 15.4393 19.1854 16.8145C19.5614 17.1905 19.8923 17.6031 20.1748 18.0439C18.8463 19.1445 18 20.8068 18 22.6667C18 23.1249 18.0514 23.5712 18.1487 24H6.93333C6.50899 24 6.10202 23.8314 5.80196 23.5314C5.5019 23.2313 5.33333 22.8243 5.33333 22.4V22C5.33333 20.0551 6.10595 18.1898 7.48122 16.8145ZM19.3333 22.6667C19.3333 20.0893 21.4227 18 24 18C26.5773 18 28.6667 20.0893 28.6667 22.6667C28.6667 25.244 26.5773 27.3333 24 27.3333C21.4227 27.3333 19.3333 25.244 19.3333 22.6667Z" fill="#0062E1"/>
</svg>
