<svg width="14" height="14" viewBox="0 0 14 14" fill="none" xmlns="http://www.w3.org/2000/svg">
<mask id="path-1-inside-1_28_5622" fill="white">
<path d="M9.41876 8.83543C9.53266 8.72152 9.71734 8.72152 9.83124 8.83543L10.5 9.50419L11.1688 8.83543C11.2827 8.72152 11.4673 8.72152 11.5812 8.83543C11.6951 8.94933 11.6951 9.134 11.5812 9.24791L10.9125 9.91667L11.5812 10.5854C11.6951 10.6993 11.6951 10.884 11.5812 10.9979C11.4673 11.1118 11.2827 11.1118 11.1688 10.9979L10.5 10.3291L9.83124 10.9979C9.71734 11.1118 9.53266 11.1118 9.41876 10.9979C9.30486 10.884 9.30486 10.6993 9.41876 10.5854L10.0875 9.91667L9.41876 9.24791C9.30486 9.134 9.30486 8.94933 9.41876 8.83543Z"/>
<path fill-rule="evenodd" clip-rule="evenodd" d="M7.18601 5.9848C7.77958 5.56178 8.16667 4.86776 8.16667 4.08333C8.16667 2.79467 7.122 1.75 5.83333 1.75C4.54467 1.75 3.5 2.79467 3.5 4.08333C3.5 4.86776 3.88708 5.56178 4.48066 5.9848C3.87398 6.16165 3.31543 6.48901 2.86055 6.94389C2.14948 7.65496 1.75 8.61939 1.75 9.625V9.8C1.75 10.1404 1.88521 10.4668 2.12588 10.7075C2.36655 10.9481 2.69297 11.0833 3.03333 11.0833H8.14786C8.5774 11.9477 9.46933 12.5417 10.5 12.5417C11.9497 12.5417 13.125 11.3664 13.125 9.91667C13.125 8.46692 11.9497 7.29167 10.5 7.29167C10.0733 7.29167 9.67036 7.39348 9.31417 7.57415C9.16891 7.34824 8.99897 7.13675 8.80611 6.94389C8.35124 6.48901 7.79269 6.16165 7.18601 5.9848ZM5.83333 2.33333C4.86683 2.33333 4.08333 3.11684 4.08333 4.08333C4.08333 5.04983 4.86683 5.83333 5.83333 5.83333C6.79983 5.83333 7.58333 5.04983 7.58333 4.08333C7.58333 3.11684 6.79983 2.33333 5.83333 2.33333ZM8.39363 7.35637C7.79195 6.75469 6.9759 6.41667 6.125 6.41667H5.54167C4.69076 6.41667 3.87471 6.75469 3.27303 7.35637C2.67135 7.95805 2.33333 8.7741 2.33333 9.625V9.8C2.33333 9.98565 2.40708 10.1637 2.53836 10.295C2.66963 10.4263 2.84768 10.5 3.03333 10.5H7.94005C7.89748 10.3124 7.875 10.1172 7.875 9.91667C7.875 9.10295 8.24524 8.37572 8.82646 7.89423C8.7029 7.70136 8.55812 7.52085 8.39363 7.35637ZM10.5 7.875C9.37242 7.875 8.45833 8.78909 8.45833 9.91667C8.45833 11.0442 9.37242 11.9583 10.5 11.9583C11.6276 11.9583 12.5417 11.0442 12.5417 9.91667C12.5417 8.78909 11.6276 7.875 10.5 7.875Z"/>
</mask>
<path d="M9.41876 8.83543C9.53266 8.72152 9.71734 8.72152 9.83124 8.83543L10.5 9.50419L11.1688 8.83543C11.2827 8.72152 11.4673 8.72152 11.5812 8.83543C11.6951 8.94933 11.6951 9.134 11.5812 9.24791L10.9125 9.91667L11.5812 10.5854C11.6951 10.6993 11.6951 10.884 11.5812 10.9979C11.4673 11.1118 11.2827 11.1118 11.1688 10.9979L10.5 10.3291L9.83124 10.9979C9.71734 11.1118 9.53266 11.1118 9.41876 10.9979C9.30486 10.884 9.30486 10.6993 9.41876 10.5854L10.0875 9.91667L9.41876 9.24791C9.30486 9.134 9.30486 8.94933 9.41876 8.83543Z" fill="#CED3D9"/>
<path fill-rule="evenodd" clip-rule="evenodd" d="M7.18601 5.9848C7.77958 5.56178 8.16667 4.86776 8.16667 4.08333C8.16667 2.79467 7.122 1.75 5.83333 1.75C4.54467 1.75 3.5 2.79467 3.5 4.08333C3.5 4.86776 3.88708 5.56178 4.48066 5.9848C3.87398 6.16165 3.31543 6.48901 2.86055 6.94389C2.14948 7.65496 1.75 8.61939 1.75 9.625V9.8C1.75 10.1404 1.88521 10.4668 2.12588 10.7075C2.36655 10.9481 2.69297 11.0833 3.03333 11.0833H8.14786C8.5774 11.9477 9.46933 12.5417 10.5 12.5417C11.9497 12.5417 13.125 11.3664 13.125 9.91667C13.125 8.46692 11.9497 7.29167 10.5 7.29167C10.0733 7.29167 9.67036 7.39348 9.31417 7.57415C9.16891 7.34824 8.99897 7.13675 8.80611 6.94389C8.35124 6.48901 7.79269 6.16165 7.18601 5.9848ZM5.83333 2.33333C4.86683 2.33333 4.08333 3.11684 4.08333 4.08333C4.08333 5.04983 4.86683 5.83333 5.83333 5.83333C6.79983 5.83333 7.58333 5.04983 7.58333 4.08333C7.58333 3.11684 6.79983 2.33333 5.83333 2.33333ZM8.39363 7.35637C7.79195 6.75469 6.9759 6.41667 6.125 6.41667H5.54167C4.69076 6.41667 3.87471 6.75469 3.27303 7.35637C2.67135 7.95805 2.33333 8.7741 2.33333 9.625V9.8C2.33333 9.98565 2.40708 10.1637 2.53836 10.295C2.66963 10.4263 2.84768 10.5 3.03333 10.5H7.94005C7.89748 10.3124 7.875 10.1172 7.875 9.91667C7.875 9.10295 8.24524 8.37572 8.82646 7.89423C8.7029 7.70136 8.55812 7.52085 8.39363 7.35637ZM10.5 7.875C9.37242 7.875 8.45833 8.78909 8.45833 9.91667C8.45833 11.0442 9.37242 11.9583 10.5 11.9583C11.6276 11.9583 12.5417 11.0442 12.5417 9.91667C12.5417 8.78909 11.6276 7.875 10.5 7.875Z" fill="#CED3D9"/>
<path d="M7.18601 5.9848L6.60564 5.17044L4.92584 6.36758L6.90615 6.94484L7.18601 5.9848ZM4.48066 5.9848L4.76051 6.94484L6.74083 6.36758L5.06102 5.17044L4.48066 5.9848ZM2.86055 6.94389L2.15345 6.23678L2.15345 6.23678L2.86055 6.94389ZM2.12588 10.7075L1.41877 11.4146L1.41877 11.4146L2.12588 10.7075ZM8.14786 11.0833L9.04337 10.6383L8.76758 10.0833H8.14786V11.0833ZM9.31417 7.57415L8.47307 8.11501L8.96137 8.87438L9.76653 8.46598L9.31417 7.57415ZM8.39363 7.35637L7.68653 8.06347L7.68653 8.06347L8.39363 7.35637ZM3.27303 7.35637L2.56593 6.64926L2.56593 6.64926L3.27303 7.35637ZM2.53836 10.295L1.83125 11.0021L1.83125 11.0021L2.53836 10.295ZM7.94005 10.5V11.5H9.19238L8.91526 10.2787L7.94005 10.5ZM8.82646 7.89423L9.46441 8.66431L10.1458 8.09983L9.66848 7.35479L8.82646 7.89423ZM10.5 9.50419L9.79289 10.2113L10.5 10.9184L11.2071 10.2113L10.5 9.50419ZM11.1688 8.83543L10.4617 8.12832L10.4617 8.12832L11.1688 8.83543ZM11.5812 9.24791L10.8741 8.5408L10.8741 8.5408L11.5812 9.24791ZM10.9125 9.91667L10.2054 9.20956L9.49827 9.91667L10.2054 10.6238L10.9125 9.91667ZM11.5812 10.5854L10.8741 11.2925L10.8741 11.2925L11.5812 10.5854ZM11.5812 10.9979L10.8741 10.2908L10.8741 10.2908L11.5812 10.9979ZM10.5 10.3291L11.2071 9.62204L10.5 8.91493L9.79289 9.62204L10.5 10.3291ZM9.83124 10.9979L9.12413 10.2908L9.12413 10.2908L9.83124 10.9979ZM9.41876 10.9979L10.1259 10.2908L10.1259 10.2908L9.41876 10.9979ZM10.0875 9.91667L10.7946 10.6238L11.5017 9.91667L10.7946 9.20956L10.0875 9.91667ZM5.08333 4.08333C5.08333 3.66912 5.41912 3.33333 5.83333 3.33333V1.33333C4.31455 1.33333 3.08333 2.56455 3.08333 4.08333H5.08333ZM5.83333 4.83333C5.41912 4.83333 5.08333 4.49755 5.08333 4.08333H3.08333C3.08333 5.60212 4.31455 6.83333 5.83333 6.83333V4.83333ZM6.58333 4.08333C6.58333 4.49755 6.24755 4.83333 5.83333 4.83333V6.83333C7.35212 6.83333 8.58333 5.60212 8.58333 4.08333H6.58333ZM5.83333 3.33333C6.24755 3.33333 6.58333 3.66912 6.58333 4.08333H8.58333C8.58333 2.56455 7.35212 1.33333 5.83333 1.33333V3.33333ZM7.16667 4.08333C7.16667 4.53078 6.94723 4.92701 6.60564 5.17044L7.76637 6.79916C8.61194 6.19655 9.16667 5.20474 9.16667 4.08333H7.16667ZM5.83333 2.75C6.56971 2.75 7.16667 3.34695 7.16667 4.08333H9.16667C9.16667 2.24238 7.67428 0.75 5.83333 0.75V2.75ZM4.5 4.08333C4.5 3.34695 5.09695 2.75 5.83333 2.75V0.75C3.99238 0.75 2.5 2.24238 2.5 4.08333H4.5ZM5.06102 5.17044C4.71944 4.92701 4.5 4.53078 4.5 4.08333H2.5C2.5 5.20474 3.05472 6.19655 3.9003 6.79916L5.06102 5.17044ZM3.56766 7.65099C3.90255 7.31611 4.31375 7.07508 4.76051 6.94484L4.20081 5.02476C3.4342 5.24822 2.72831 5.66192 2.15345 6.23678L3.56766 7.65099ZM2.75 9.625C2.75 8.8846 3.04412 8.17453 3.56766 7.65099L2.15345 6.23678C1.25483 7.13539 0.75 8.35417 0.75 9.625H2.75ZM2.75 9.8V9.625H0.75V9.8H2.75ZM2.83299 10.0003C2.77985 9.94721 2.75 9.87514 2.75 9.8H0.75C0.75 10.4056 0.990565 10.9864 1.41877 11.4146L2.83299 10.0003ZM3.03333 10.0833C2.95819 10.0833 2.88612 10.0535 2.83299 10.0003L1.41877 11.4146C1.84698 11.8428 2.42775 12.0833 3.03333 12.0833V10.0833ZM8.14786 10.0833H3.03333V12.0833H8.14786V10.0833ZM10.5 11.5417C9.86343 11.5417 9.31048 11.1758 9.04337 10.6383L7.25235 11.5284C7.84431 12.7195 9.07523 13.5417 10.5 13.5417V11.5417ZM12.125 9.91667C12.125 10.8141 11.3975 11.5417 10.5 11.5417V13.5417C12.502 13.5417 14.125 11.9187 14.125 9.91667H12.125ZM10.5 8.29167C11.3975 8.29167 12.125 9.0192 12.125 9.91667H14.125C14.125 7.91464 12.502 6.29167 10.5 6.29167V8.29167ZM9.76653 8.46598C9.98575 8.35479 10.2341 8.29167 10.5 8.29167V6.29167C9.91252 6.29167 9.35496 6.43217 8.86182 6.68231L9.76653 8.46598ZM8.09901 7.65099C8.24104 7.79303 8.36614 7.94873 8.47307 8.11501L10.1553 7.03328C9.97168 6.74776 9.75691 6.48047 9.51322 6.23678L8.09901 7.65099ZM6.90615 6.94484C7.35292 7.07508 7.76412 7.31611 8.09901 7.65099L9.51322 6.23678C8.93836 5.66192 8.23246 5.24822 7.46586 5.02476L6.90615 6.94484ZM6.125 7.41667C6.71069 7.41667 7.27238 7.64933 7.68653 8.06347L9.10074 6.64926C8.31153 5.86004 7.24112 5.41667 6.125 5.41667V7.41667ZM3.98014 8.06347C4.39428 7.64933 4.95598 7.41667 5.54167 7.41667V5.41667C4.42555 5.41667 3.35514 5.86004 2.56593 6.64926L3.98014 8.06347ZM3.33333 9.625C3.33333 9.03931 3.566 8.47762 3.98014 8.06347L2.56593 6.64926C1.77671 7.43848 1.33333 8.50888 1.33333 9.625H3.33333ZM3.33333 9.8V9.625H1.33333V9.8H3.33333ZM3.24547 9.58787C3.30173 9.64413 3.33333 9.72043 3.33333 9.8H1.33333C1.33333 10.2509 1.51244 10.6833 1.83125 11.0021L3.24547 9.58787ZM3.03333 9.5C3.1129 9.5 3.18921 9.53161 3.24547 9.58787L1.83125 11.0021C2.15006 11.3209 2.58246 11.5 3.03333 11.5V9.5ZM7.94005 9.5H3.03333V11.5H7.94005V9.5ZM6.875 9.91667C6.875 10.1921 6.9059 10.4616 6.96484 10.7213L8.91526 10.2787C8.88905 10.1632 8.875 10.0422 8.875 9.91667H6.875ZM8.18851 7.12415C7.3878 7.78747 6.875 8.79262 6.875 9.91667H8.875C8.875 9.41329 9.10269 8.96396 9.46441 8.66431L8.18851 7.12415ZM7.68653 8.06347C7.79978 8.17673 7.89941 8.30095 7.98444 8.43367L9.66848 7.35479C9.50639 7.10177 9.31646 6.86498 9.10074 6.64926L7.68653 8.06347ZM9.45833 9.91667C9.45833 9.34137 9.9247 8.875 10.5 8.875V6.875C8.82013 6.875 7.45833 8.2368 7.45833 9.91667H9.45833ZM10.5 10.9583C9.9247 10.9583 9.45833 10.492 9.45833 9.91667H7.45833C7.45833 11.5965 8.82013 12.9583 10.5 12.9583V10.9583ZM11.5417 9.91667C11.5417 10.492 11.0753 10.9583 10.5 10.9583V12.9583C12.1799 12.9583 13.5417 11.5965 13.5417 9.91667H11.5417ZM10.5 8.875C11.0753 8.875 11.5417 9.34137 11.5417 9.91667H13.5417C13.5417 8.2368 12.1799 6.875 10.5 6.875V8.875ZM10.5383 8.12832C10.0339 7.62389 9.21608 7.62389 8.71165 8.12832L10.1259 9.54253C9.84925 9.81916 9.40075 9.81916 9.12413 9.54253L10.5383 8.12832ZM11.2071 8.79708L10.5383 8.12832L9.12413 9.54253L9.79289 10.2113L11.2071 8.79708ZM10.4617 8.12832L9.79289 8.79708L11.2071 10.2113L11.8759 9.54253L10.4617 8.12832ZM12.2883 8.12832C11.7839 7.62389 10.9661 7.62389 10.4617 8.12832L11.8759 9.54254C11.5992 9.81916 11.1508 9.81916 10.8741 9.54254L12.2883 8.12832ZM12.2883 9.95502C12.7928 9.45059 12.7928 8.63275 12.2883 8.12832L10.8741 9.54254C10.5975 9.26591 10.5975 8.81742 10.8741 8.5408L12.2883 9.95502ZM11.6196 10.6238L12.2883 9.95501L10.8741 8.5408L10.2054 9.20956L11.6196 10.6238ZM12.2883 9.87832L11.6196 9.20956L10.2054 10.6238L10.8741 11.2925L12.2883 9.87832ZM12.2883 11.705C12.7928 11.2006 12.7928 10.3827 12.2883 9.87832L10.8741 11.2925C10.5975 11.0159 10.5975 10.5674 10.8741 10.2908L12.2883 11.705ZM10.4617 11.705C10.9661 12.2094 11.7839 12.2094 12.2883 11.705L10.8741 10.2908C11.1508 10.0142 11.5992 10.0142 11.8759 10.2908L10.4617 11.705ZM9.79289 11.0363L10.4617 11.705L11.8759 10.2908L11.2071 9.62204L9.79289 11.0363ZM10.5383 11.705L11.2071 11.0363L9.79289 9.62204L9.12413 10.2908L10.5383 11.705ZM8.71165 11.705C9.21608 12.2094 10.0339 12.2094 10.5383 11.705L9.12413 10.2908C9.40075 10.0142 9.84925 10.0142 10.1259 10.2908L8.71165 11.705ZM8.71165 9.87832C8.20723 10.3827 8.20723 11.2006 8.71165 11.705L10.1259 10.2908C10.4025 10.5674 10.4025 11.0159 10.1259 11.2925L8.71165 9.87832ZM9.38041 9.20956L8.71165 9.87832L10.1259 11.2925L10.7946 10.6238L9.38041 9.20956ZM8.71165 9.95501L9.38041 10.6238L10.7946 9.20956L10.1259 8.5408L8.71165 9.95501ZM8.71165 8.12832C8.20723 8.63275 8.20723 9.45059 8.71165 9.95501L10.1259 8.5408C10.4025 8.81742 10.4025 9.26591 10.1259 9.54253L8.71165 8.12832ZM5.54167 7.41667H6.125V5.41667H5.54167V7.41667Z" fill="#CED3D9" mask="url(#path-1-inside-1_28_5622)"/>
</svg>
