<svg width="32" height="32" viewBox="0 0 32 32" fill="none" xmlns="http://www.w3.org/2000/svg">
<path d="M10.3664 5.37682C12.818 4.07327 15.6458 3.66023 18.3679 4.20811C21.0899 4.75599 23.5377 6.23087 25.2941 8.38138C26.8575 10.2955 27.787 12.6395 27.9676 15.0897L29.5287 13.5286C29.789 13.2682 30.2111 13.2682 30.4715 13.5286C30.7318 13.7889 30.7318 14.2111 30.4715 14.4714L27.8048 17.1381C27.5445 17.3984 27.1224 17.3984 26.862 17.1381L24.1953 14.4714C23.935 14.2111 23.935 13.7889 24.1953 13.5286C24.4557 13.2682 24.8778 13.2682 25.1382 13.5286L26.6236 15.0141C26.4329 12.8992 25.6141 10.881 24.2615 9.22481C22.7002 7.31323 20.5244 6.00223 18.1048 5.51523C15.6852 5.02823 13.1716 5.39537 10.9924 6.55408C8.81317 7.71279 7.1032 9.59136 6.15393 11.8696C5.20465 14.1479 5.07481 16.6848 5.78654 19.0481C6.49826 21.4114 8.0075 23.4547 10.057 24.8298C12.1066 26.205 14.5696 26.8268 17.0262 26.5894C19.4829 26.3519 21.7812 25.2699 23.5295 23.5277C23.5662 23.4911 23.6067 23.4592 23.6502 23.4325C23.8665 23.2106 24.0734 22.979 24.2707 22.7378C24.5039 22.4528 24.9239 22.4108 25.2089 22.644C25.4938 22.8771 25.5358 23.2971 25.3027 23.5821C25.0487 23.8925 24.7805 24.1889 24.4981 24.4714C24.4592 24.5103 24.416 24.5439 24.3696 24.5717C22.4157 26.4733 19.8712 27.654 17.1545 27.9165C14.3908 28.1836 11.6199 27.4841 9.31416 25.937C7.00843 24.39 5.31053 22.0913 4.50984 19.4326C3.70915 16.7739 3.85522 13.9198 4.92316 11.3568C5.99109 8.79376 7.9148 6.68037 10.3664 5.37682Z" fill="#0062E1"/>
<path d="M16.6667 9.33333C16.2986 9.33333 16.0001 9.63181 16.0001 10V15.8305L12.3153 19.5153C12.055 19.7756 12.055 20.1977 12.3153 20.4581C12.5757 20.7184 12.9978 20.7184 13.2582 20.4581L17.1382 16.5781C17.2632 16.453 17.3334 16.2835 17.3334 16.1067V10C17.3334 9.63181 17.0349 9.33333 16.6667 9.33333Z" fill="#0062E1"/>
</svg>
