<svg width="20" height="20" viewBox="0 0 20 20" fill="none" xmlns="http://www.w3.org/2000/svg">
<path fill-rule="evenodd" clip-rule="evenodd" d="M8.33333 2.5C5.11167 2.5 2.5 5.11167 2.5 8.33333C2.5 11.555 5.11167 14.1667 8.33333 14.1667C9.79653 14.1667 11.1339 13.6279 12.1579 12.738C12.1718 12.7579 12.1876 12.7769 12.2054 12.7946L16.372 16.9613C16.5348 17.124 16.7986 17.124 16.9613 16.9613C17.124 16.7986 17.124 16.5348 16.9613 16.372L12.7946 12.2054C12.7769 12.1876 12.7579 12.1718 12.738 12.1579C13.6279 11.1339 14.1667 9.79653 14.1667 8.33333C14.1667 5.11167 11.555 2.5 8.33333 2.5ZM3.33333 8.33333C3.33333 5.57191 5.57191 3.33333 8.33333 3.33333C11.0948 3.33333 13.3333 5.57191 13.3333 8.33333C13.3333 11.0948 11.0948 13.3333 8.33333 13.3333C5.57191 13.3333 3.33333 11.0948 3.33333 8.33333Z" fill="#5C6C80"/>
</svg>
