<svg width="32" height="32" viewBox="0 0 32 32" fill="none" xmlns="http://www.w3.org/2000/svg">
<path d="M21.5286 20.1953C21.7889 19.9349 22.2111 19.9349 22.4714 20.1953L24 21.7239L25.5286 20.1953C25.7889 19.9349 26.2111 19.9349 26.4714 20.1953C26.7318 20.4556 26.7318 20.8777 26.4714 21.1381L24.9428 22.6667L26.4714 24.1953C26.7318 24.4556 26.7318 24.8777 26.4714 25.1381C26.2111 25.3984 25.7889 25.3984 25.5286 25.1381L24 23.6095L22.4714 25.1381C22.2111 25.3984 21.7889 25.3984 21.5286 25.1381C21.2682 24.8777 21.2682 24.4556 21.5286 24.1953L23.0572 22.6667L21.5286 21.1381C21.2682 20.8777 21.2682 20.4556 21.5286 20.1953Z" fill="#0062E1"/>
<path fill-rule="evenodd" clip-rule="evenodd" d="M16.4252 13.6795C17.7819 12.7126 18.6667 11.1263 18.6667 9.33333C18.6667 6.38781 16.2789 4 13.3333 4C10.3878 4 8 6.38781 8 9.33333C8 11.1263 8.88476 12.7126 10.2415 13.6795C8.8548 14.0838 7.57812 14.832 6.53841 15.8717C4.91309 17.4971 4 19.7015 4 22V22.4C4 23.178 4.30905 23.9241 4.85915 24.4742C5.40926 25.0243 6.15536 25.3333 6.93333 25.3333H18.6237C19.6055 27.309 21.6442 28.6667 24 28.6667C27.3137 28.6667 30 25.9804 30 22.6667C30 19.353 27.3137 16.6667 24 16.6667C23.0247 16.6667 22.1037 16.8994 21.2895 17.3123C20.9575 16.796 20.5691 16.3126 20.1283 15.8717C19.0885 14.832 17.8119 14.0838 16.4252 13.6795ZM13.3333 5.33333C11.1242 5.33333 9.33333 7.12419 9.33333 9.33333C9.33333 11.5425 11.1242 13.3333 13.3333 13.3333C15.5425 13.3333 17.3333 11.5425 17.3333 9.33333C17.3333 7.12419 15.5425 5.33333 13.3333 5.33333ZM19.1854 16.8145C17.8102 15.4393 15.9449 14.6667 14 14.6667H12.6667C10.7217 14.6667 8.85648 15.4393 7.48122 16.8145C6.10595 18.1898 5.33333 20.0551 5.33333 22V22.4C5.33333 22.8243 5.5019 23.2313 5.80196 23.5314C6.10202 23.8314 6.50899 24 6.93333 24H18.1487C18.0514 23.5712 18 23.1249 18 22.6667C18 20.8068 18.8463 19.1445 20.1748 18.0439C19.8923 17.6031 19.5614 17.1905 19.1854 16.8145ZM24 18C21.4227 18 19.3333 20.0893 19.3333 22.6667C19.3333 25.244 21.4227 27.3333 24 27.3333C26.5773 27.3333 28.6667 25.244 28.6667 22.6667C28.6667 20.0893 26.5773 18 24 18Z" fill="#0062E1"/>
</svg>
