<svg width="24" height="24" viewBox="0 0 24 24" fill="none" xmlns="http://www.w3.org/2000/svg">
<path fill-rule="evenodd" clip-rule="evenodd" d="M11.9999 2.98992C11.9421 2.96927 11.8795 2.95899 11.8144 2.96124C10.2309 3.0161 8.84703 3.69269 7.78033 4.80599C6.86688 5.74699 6.30968 7.07969 6.0987 8.33447C6.09645 8.34786 6.09475 8.36133 6.09359 8.37486L6.00138 9.45529L6.00032 9.4705L5.99702 9.5309C5.99401 9.58296 5.98919 9.66026 5.9822 9.75571C5.96813 9.94806 5.94533 10.214 5.9106 10.5082C5.83712 11.1307 5.72297 11.7593 5.57471 12.1211C5.44316 12.4421 5.21169 12.8214 4.88679 13.3497C4.81357 13.4688 4.73643 13.5942 4.65656 13.7256C4.24687 14.3997 3.77685 15.2164 3.44859 16.1428C3.42387 16.2126 3.39787 16.2829 3.37046 16.3567C3.37046 16.3567 3.37047 16.3567 3.37046 16.3567C3.36655 16.3672 3.3626 16.3778 3.35863 16.3885L3.34954 16.4129C3.18966 16.8424 2.99104 17.376 2.99992 18.0145C3.00754 18.5613 3.45297 19.0006 3.99983 19.0006H8.6453C9.07588 20.4459 10.4143 21.5 12 21.5C13.5858 21.5 14.9242 20.4459 15.3548 19.0006H19.9998C20.5467 19.0006 20.9921 18.5613 20.9997 18.0145C21.0086 17.3757 20.8099 16.8419 20.6498 16.412L20.6407 16.3876C20.609 16.3024 20.5792 16.2222 20.551 16.1426C20.2303 15.2383 19.7904 14.4297 19.3866 13.7448C19.2479 13.5095 19.1152 13.2916 18.9928 13.0902L18.9921 13.0891C18.7435 12.6804 18.5432 12.3506 18.3945 12.0531C18.2464 11.7569 18.1559 11.1943 18.1263 10.5774C18.1228 10.5057 18.1045 10.4383 18.0743 10.378C18.0478 10.136 18.0295 9.91924 18.0175 9.75571C18.0105 9.66035 18.0057 9.58296 18.0027 9.5309L17.9994 9.4705L17.9983 9.45529L17.9061 8.37486C17.9053 8.36471 17.9041 8.3546 17.9026 8.34453C17.9024 8.34285 17.9021 8.34117 17.9018 8.3395C17.9016 8.33782 17.9013 8.33614 17.901 8.33447C17.6901 7.07972 17.1329 5.74706 16.2195 4.80606C15.1528 3.69273 13.7688 3.0161 12.1853 2.96124C12.1202 2.95899 12.0577 2.96927 11.9999 2.98992ZM9.70817 19.0006C10.0941 19.8834 10.9755 20.5 12 20.5C13.0245 20.5 13.9059 19.8834 14.2919 19.0006H9.70817ZM17.1354 10.7696C17.1156 10.7249 17.1021 10.6765 17.096 10.6254C17.0591 10.313 17.0351 10.0318 17.0202 9.82869C17.0128 9.72714 17.0076 9.64512 17.0044 9.58849L17.0043 9.587L17.0013 9.53272L16.9115 8.48057C16.7226 7.37789 16.2354 6.2577 15.5009 5.50153L15.4984 5.49897C14.5969 4.55752 13.4533 4.00577 12.1507 3.96064C12.0978 3.95881 12.0472 3.94884 11.9999 3.93197C11.9526 3.94884 11.9019 3.95881 11.849 3.96064C10.5464 4.00577 9.40285 4.55752 8.5013 5.49897L8.49881 5.50153C7.76428 6.2577 7.27712 7.37789 7.08821 8.48057L6.99841 9.53272L6.99544 9.587L6.99536 9.58849C6.99209 9.64512 6.98696 9.72714 6.97953 9.82869C6.96467 10.0318 6.94059 10.313 6.90371 10.6254C6.82996 11.2501 6.70497 12.0002 6.50003 12.5003C6.33398 12.9055 6.05868 13.3531 5.75701 13.8436L5.73861 13.8735C5.66523 13.9929 5.58941 14.1162 5.5111 14.245C5.1082 14.9079 4.6834 15.6521 4.39116 16.4768C4.36018 16.5643 4.32761 16.6518 4.29658 16.7352L4.29588 16.7371C4.12855 17.1869 3.99373 17.5625 3.99983 18.0006L19.9998 18.0006C20.0059 17.5622 19.871 17.1865 19.7035 16.7363L19.7028 16.7344L19.7024 16.7334C19.6715 16.6504 19.6393 16.5639 19.6085 16.4768C19.3197 15.6624 18.9176 14.9182 18.5252 14.2527C18.3902 14.0238 18.2608 13.8111 18.1378 13.6089L18.1298 13.5957C17.8907 13.2027 17.6693 12.8388 17.5 12.5003C17.2689 12.038 17.1724 11.3622 17.1354 10.7696Z" fill="#E8EBEF"/>
</svg>
