<svg width="14" height="14" viewBox="0 0 14 14" fill="none" xmlns="http://www.w3.org/2000/svg">
<mask id="path-1-inside-1_28_5613" fill="white">
<path d="M11.5812 9.53957C11.6951 9.42567 11.6951 9.241 11.5812 9.12709C11.4673 9.01319 11.2827 9.01319 11.1688 9.12709L10.2083 10.0875L9.83124 9.71043C9.71734 9.59652 9.53266 9.59652 9.41876 9.71043C9.30486 9.82433 9.30486 10.009 9.41876 10.1229L10.0021 10.7062C10.116 10.8201 10.3007 10.8201 10.4146 10.7062L11.5812 9.53957Z"/>
<path fill-rule="evenodd" clip-rule="evenodd" d="M8.16667 4.08333C8.16667 4.86776 7.77958 5.56178 7.18601 5.9848C7.79269 6.16165 8.35124 6.48901 8.80611 6.94389C8.99897 7.13675 9.16891 7.34824 9.31417 7.57415C9.67036 7.39348 10.0733 7.29167 10.5 7.29167C11.9497 7.29167 13.125 8.46692 13.125 9.91667C13.125 11.3664 11.9497 12.5417 10.5 12.5417C9.46933 12.5417 8.5774 11.9477 8.14786 11.0833H3.03333C2.69297 11.0833 2.36655 10.9481 2.12588 10.7075C1.88521 10.4668 1.75 10.1404 1.75 9.8V9.625C1.75 8.61939 2.14948 7.65496 2.86055 6.94389C3.31543 6.48901 3.87398 6.16165 4.48066 5.9848C3.88708 5.56178 3.5 4.86776 3.5 4.08333C3.5 2.79467 4.54467 1.75 5.83333 1.75C7.122 1.75 8.16667 2.79467 8.16667 4.08333ZM4.08333 4.08333C4.08333 3.11684 4.86683 2.33333 5.83333 2.33333C6.79983 2.33333 7.58333 3.11684 7.58333 4.08333C7.58333 5.04983 6.79983 5.83333 5.83333 5.83333C4.86683 5.83333 4.08333 5.04983 4.08333 4.08333ZM3.27303 7.35637C3.87471 6.75469 4.69076 6.41667 5.54167 6.41667H6.125C6.9759 6.41667 7.79195 6.75469 8.39363 7.35637C8.55812 7.52085 8.7029 7.70136 8.82646 7.89423C8.24524 8.37572 7.875 9.10295 7.875 9.91667C7.875 10.1172 7.89748 10.3124 7.94005 10.5H3.03333C2.84768 10.5 2.66963 10.4263 2.53836 10.295C2.40708 10.1637 2.33333 9.98565 2.33333 9.8V9.625C2.33333 8.7741 2.67135 7.95805 3.27303 7.35637ZM8.45833 9.91667C8.45833 8.78909 9.37242 7.875 10.5 7.875C11.6276 7.875 12.5417 8.78909 12.5417 9.91667C12.5417 11.0442 11.6276 11.9583 10.5 11.9583C9.37242 11.9583 8.45833 11.0442 8.45833 9.91667Z"/>
</mask>
<path d="M11.5812 9.53957C11.6951 9.42567 11.6951 9.241 11.5812 9.12709C11.4673 9.01319 11.2827 9.01319 11.1688 9.12709L10.2083 10.0875L9.83124 9.71043C9.71734 9.59652 9.53266 9.59652 9.41876 9.71043C9.30486 9.82433 9.30486 10.009 9.41876 10.1229L10.0021 10.7062C10.116 10.8201 10.3007 10.8201 10.4146 10.7062L11.5812 9.53957Z" fill="#CED3D9"/>
<path fill-rule="evenodd" clip-rule="evenodd" d="M8.16667 4.08333C8.16667 4.86776 7.77958 5.56178 7.18601 5.9848C7.79269 6.16165 8.35124 6.48901 8.80611 6.94389C8.99897 7.13675 9.16891 7.34824 9.31417 7.57415C9.67036 7.39348 10.0733 7.29167 10.5 7.29167C11.9497 7.29167 13.125 8.46692 13.125 9.91667C13.125 11.3664 11.9497 12.5417 10.5 12.5417C9.46933 12.5417 8.5774 11.9477 8.14786 11.0833H3.03333C2.69297 11.0833 2.36655 10.9481 2.12588 10.7075C1.88521 10.4668 1.75 10.1404 1.75 9.8V9.625C1.75 8.61939 2.14948 7.65496 2.86055 6.94389C3.31543 6.48901 3.87398 6.16165 4.48066 5.9848C3.88708 5.56178 3.5 4.86776 3.5 4.08333C3.5 2.79467 4.54467 1.75 5.83333 1.75C7.122 1.75 8.16667 2.79467 8.16667 4.08333ZM4.08333 4.08333C4.08333 3.11684 4.86683 2.33333 5.83333 2.33333C6.79983 2.33333 7.58333 3.11684 7.58333 4.08333C7.58333 5.04983 6.79983 5.83333 5.83333 5.83333C4.86683 5.83333 4.08333 5.04983 4.08333 4.08333ZM3.27303 7.35637C3.87471 6.75469 4.69076 6.41667 5.54167 6.41667H6.125C6.9759 6.41667 7.79195 6.75469 8.39363 7.35637C8.55812 7.52085 8.7029 7.70136 8.82646 7.89423C8.24524 8.37572 7.875 9.10295 7.875 9.91667C7.875 10.1172 7.89748 10.3124 7.94005 10.5H3.03333C2.84768 10.5 2.66963 10.4263 2.53836 10.295C2.40708 10.1637 2.33333 9.98565 2.33333 9.8V9.625C2.33333 8.7741 2.67135 7.95805 3.27303 7.35637ZM8.45833 9.91667C8.45833 8.78909 9.37242 7.875 10.5 7.875C11.6276 7.875 12.5417 8.78909 12.5417 9.91667C12.5417 11.0442 11.6276 11.9583 10.5 11.9583C9.37242 11.9583 8.45833 11.0442 8.45833 9.91667Z" fill="#CED3D9"/>
<path d="M7.18601 5.9848L6.60564 5.17044L4.92584 6.36758L6.90615 6.94484L7.18601 5.9848ZM9.31417 7.57415L8.47307 8.11501L8.96137 8.87438L9.76653 8.46598L9.31417 7.57415ZM8.14786 11.0833L9.04337 10.6383L8.76758 10.0833H8.14786V11.0833ZM2.12588 10.7075L1.41877 11.4146L1.41877 11.4146L2.12588 10.7075ZM2.86055 6.94389L2.15345 6.23678L2.15345 6.23678L2.86055 6.94389ZM4.48066 5.9848L4.76051 6.94484L6.74083 6.36758L5.06102 5.17044L4.48066 5.9848ZM3.27303 7.35637L2.56593 6.64926L2.56593 6.64926L3.27303 7.35637ZM8.39363 7.35637L7.68653 8.06347L7.68653 8.06347L8.39363 7.35637ZM8.82646 7.89423L9.46441 8.66431L10.1458 8.09983L9.66848 7.35479L8.82646 7.89423ZM7.94005 10.5V11.5H9.19238L8.91526 10.2787L7.94005 10.5ZM2.53836 10.295L1.83125 11.0021L1.83125 11.0021L2.53836 10.295ZM11.5812 9.53957L10.8741 8.83247L10.8741 8.83247L11.5812 9.53957ZM11.1688 9.12709L10.4617 8.41999L10.4617 8.41999L11.1688 9.12709ZM10.2083 10.0875L9.50123 10.7946L10.2083 11.5017L10.9154 10.7946L10.2083 10.0875ZM9.83124 9.71043L10.5383 9.00332L10.5383 9.00332L9.83124 9.71043ZM5.83333 1.33333C4.31455 1.33333 3.08333 2.56455 3.08333 4.08333H5.08333C5.08333 3.66912 5.41912 3.33333 5.83333 3.33333V1.33333ZM8.58333 4.08333C8.58333 2.56455 7.35212 1.33333 5.83333 1.33333V3.33333C6.24755 3.33333 6.58333 3.66912 6.58333 4.08333H8.58333ZM5.83333 6.83333C7.35212 6.83333 8.58333 5.60212 8.58333 4.08333H6.58333C6.58333 4.49755 6.24755 4.83333 5.83333 4.83333V6.83333ZM3.08333 4.08333C3.08333 5.60212 4.31455 6.83333 5.83333 6.83333V4.83333C5.41912 4.83333 5.08333 4.49755 5.08333 4.08333H3.08333ZM7.76637 6.79916C8.61194 6.19655 9.16667 5.20474 9.16667 4.08333H7.16667C7.16667 4.53078 6.94723 4.92701 6.60564 5.17044L7.76637 6.79916ZM9.51322 6.23678C8.93836 5.66192 8.23246 5.24822 7.46586 5.02476L6.90615 6.94484C7.35292 7.07508 7.76412 7.31611 8.09901 7.65099L9.51322 6.23678ZM10.1553 7.03328C9.97168 6.74776 9.75691 6.48047 9.51322 6.23678L8.09901 7.65099C8.24104 7.79303 8.36614 7.94873 8.47307 8.11501L10.1553 7.03328ZM10.5 6.29167C9.91252 6.29167 9.35496 6.43217 8.86182 6.68231L9.76653 8.46598C9.98575 8.35479 10.2341 8.29167 10.5 8.29167V6.29167ZM14.125 9.91667C14.125 7.91464 12.502 6.29167 10.5 6.29167V8.29167C11.3975 8.29167 12.125 9.0192 12.125 9.91667H14.125ZM10.5 13.5417C12.502 13.5417 14.125 11.9187 14.125 9.91667H12.125C12.125 10.8141 11.3975 11.5417 10.5 11.5417V13.5417ZM7.25235 11.5284C7.84431 12.7195 9.07523 13.5417 10.5 13.5417V11.5417C9.86343 11.5417 9.31048 11.1758 9.04337 10.6383L7.25235 11.5284ZM3.03333 12.0833H8.14786V10.0833H3.03333V12.0833ZM1.41877 11.4146C1.84698 11.8428 2.42775 12.0833 3.03333 12.0833V10.0833C2.95819 10.0833 2.88612 10.0535 2.83299 10.0003L1.41877 11.4146ZM0.75 9.8C0.75 10.4056 0.990565 10.9864 1.41877 11.4146L2.83299 10.0003C2.77985 9.94721 2.75 9.87514 2.75 9.8H0.75ZM0.75 9.625V9.8H2.75V9.625H0.75ZM2.15345 6.23678C1.25483 7.13539 0.75 8.35417 0.75 9.625H2.75C2.75 8.8846 3.04412 8.17453 3.56766 7.65099L2.15345 6.23678ZM4.20081 5.02476C3.4342 5.24822 2.72831 5.66192 2.15345 6.23678L3.56766 7.65099C3.90255 7.31611 4.31375 7.07508 4.76051 6.94484L4.20081 5.02476ZM2.5 4.08333C2.5 5.20474 3.05472 6.19655 3.9003 6.79916L5.06102 5.17044C4.71944 4.92701 4.5 4.53078 4.5 4.08333H2.5ZM5.83333 0.75C3.99238 0.75 2.5 2.24238 2.5 4.08333H4.5C4.5 3.34695 5.09695 2.75 5.83333 2.75V0.75ZM9.16667 4.08333C9.16667 2.24238 7.67428 0.75 5.83333 0.75V2.75C6.56971 2.75 7.16667 3.34695 7.16667 4.08333H9.16667ZM5.54167 5.41667C4.42555 5.41667 3.35514 5.86004 2.56593 6.64926L3.98014 8.06347C4.39428 7.64933 4.95598 7.41667 5.54167 7.41667V5.41667ZM9.10074 6.64926C8.31153 5.86004 7.24112 5.41667 6.125 5.41667V7.41667C6.71069 7.41667 7.27238 7.64933 7.68653 8.06347L9.10074 6.64926ZM9.66848 7.35479C9.50639 7.10177 9.31646 6.86498 9.10074 6.64926L7.68653 8.06347C7.79978 8.17673 7.89941 8.30095 7.98444 8.43367L9.66848 7.35479ZM8.875 9.91667C8.875 9.41329 9.10269 8.96396 9.46441 8.66431L8.18851 7.12415C7.3878 7.78747 6.875 8.79262 6.875 9.91667H8.875ZM8.91526 10.2787C8.88905 10.1632 8.875 10.0422 8.875 9.91667H6.875C6.875 10.1921 6.9059 10.4616 6.96484 10.7213L8.91526 10.2787ZM3.03333 11.5H7.94005V9.5H3.03333V11.5ZM1.83125 11.0021C2.15006 11.3209 2.58246 11.5 3.03333 11.5V9.5C3.1129 9.5 3.18921 9.53161 3.24547 9.58787L1.83125 11.0021ZM1.33333 9.8C1.33333 10.2509 1.51244 10.6833 1.83125 11.0021L3.24547 9.58787C3.30173 9.64413 3.33333 9.72043 3.33333 9.8H1.33333ZM1.33333 9.625V9.8H3.33333V9.625H1.33333ZM2.56593 6.64926C1.77671 7.43848 1.33333 8.50888 1.33333 9.625H3.33333C3.33333 9.03931 3.566 8.47762 3.98014 8.06347L2.56593 6.64926ZM10.5 6.875C8.82013 6.875 7.45833 8.2368 7.45833 9.91667H9.45833C9.45833 9.34137 9.9247 8.875 10.5 8.875V6.875ZM13.5417 9.91667C13.5417 8.2368 12.1799 6.875 10.5 6.875V8.875C11.0753 8.875 11.5417 9.34137 11.5417 9.91667H13.5417ZM10.5 12.9583C12.1799 12.9583 13.5417 11.5965 13.5417 9.91667H11.5417C11.5417 10.492 11.0753 10.9583 10.5 10.9583V12.9583ZM7.45833 9.91667C7.45833 11.5965 8.82013 12.9583 10.5 12.9583V10.9583C9.9247 10.9583 9.45833 10.492 9.45833 9.91667H7.45833ZM10.8741 9.8342C10.5975 9.55758 10.5975 9.10909 10.8741 8.83247L12.2883 10.2467C12.7928 9.74225 12.7928 8.92441 12.2883 8.41999L10.8741 9.8342ZM11.8759 9.8342C11.5992 10.1108 11.1508 10.1108 10.8741 9.8342L12.2883 8.41999C11.7839 7.91556 10.9661 7.91556 10.4617 8.41999L11.8759 9.8342ZM10.9154 10.7946L11.8759 9.8342L10.4617 8.41999L9.50123 9.38042L10.9154 10.7946ZM9.12413 10.4175L9.50123 10.7946L10.9154 9.38042L10.5383 9.00332L9.12413 10.4175ZM10.1259 10.4175C9.84925 10.6942 9.40075 10.6942 9.12413 10.4175L10.5383 9.00332C10.0339 8.49889 9.21608 8.49889 8.71165 9.00332L10.1259 10.4175ZM10.1259 9.4158C10.4025 9.69242 10.4025 10.1409 10.1259 10.4175L8.71165 9.00332C8.20723 9.50775 8.20723 10.3256 8.71165 10.83L10.1259 9.4158ZM10.7092 9.99913L10.1259 9.4158L8.71165 10.83L9.29499 11.4133L10.7092 9.99913ZM9.70747 9.99913C9.98409 9.72251 10.4326 9.72251 10.7092 9.99913L9.29499 11.4133C9.79941 11.9178 10.6173 11.9178 11.1217 11.4133L9.70747 9.99913ZM10.8741 8.83247L9.70747 9.99913L11.1217 11.4133L12.2883 10.2467L10.8741 8.83247ZM6.125 5.41667H5.54167V7.41667H6.125V5.41667Z" fill="#CED3D9" mask="url(#path-1-inside-1_28_5613)"/>
</svg>
