<svg width="26" height="26" viewBox="0 0 26 26" fill="none" xmlns="http://www.w3.org/2000/svg">
<path fill-rule="evenodd" clip-rule="evenodd" d="M13 2.4375C7.16649 2.4375 2.4375 7.16649 2.4375 13C2.4375 18.8335 7.16649 23.5625 13 23.5625C18.8335 23.5625 23.5625 18.8335 23.5625 13C23.5625 7.16649 18.8335 2.4375 13 2.4375ZM11.137 9.98798C10.8197 9.67067 10.3053 9.67067 9.98798 9.98798C9.67067 10.3053 9.67067 10.8197 9.98798 11.137L11.851 13L9.98798 14.863C9.67067 15.1803 9.67067 15.6947 9.98798 16.012C10.3053 16.3293 10.8197 16.3293 11.137 16.012L13 14.149L14.863 16.012C15.1803 16.3293 15.6947 16.3293 16.012 16.012C16.3293 15.6947 16.3293 15.1803 16.012 14.863L14.149 13L16.012 11.137C16.3293 10.8197 16.3293 10.3053 16.012 9.98798C15.6947 9.67067 15.1803 9.67067 14.863 9.98798L13 11.851L11.137 9.98798Z" fill="white"/>
</svg>
